<?xml version="1.0" encoding="UTF-8"?>
<!DOCTYPE svg PUBLIC "-//W3C//DTD SVG 1.1//EN" "http://www.w3.org/Graphics/SVG/1.1/DTD/svg11.dtd">
<svg version="1.1" xmlns="http://www.w3.org/2000/svg" xmlns:xlink="http://www.w3.org/1999/xlink" x="0px" y="0px" width="64" height="64" viewBox="0, 0, 64, 64">
  <g id="Background">
    <rect x="0" y="0" width="64" height="64" fill="#000000" fill-opacity="0"/>
  </g>
  <g id="Background">
    <path d="M61.808,10.761 C60.174,10.397 54.433,8.806 53.275,13.422 L52.927,14.886 C48.469,33.858 46.742,36.21 46.209,36.465 L2.719,36.465 C1.796,36.465 1.046,37.207 1.046,38.134 C1.046,39.054 1.796,39.811 2.719,39.811 L46.209,39.811 C49.222,39.811 51.478,35.689 56.183,15.651 L56.52,14.23 C56.709,13.492 57.597,13.256 61.074,14.021 C61.966,14.23 62.863,13.666 63.067,12.762 C63.272,11.869 62.704,10.973 61.808,10.761" fill="#FFFFFF"/>
    <path d="M11.511,14.23 L11.669,18.073 C11.669,18.085 11.662,18.1 11.639,18.1 L4.998,18.1 L4.546,14.23 L11.511,14.23 z M44.181,18.1 L36.841,18.1 C36.822,18.1 36.814,18.085 36.814,18.073 L36.972,14.23 L44.648,14.23 L44.181,18.1 z M36.123,30.13 L36.327,26.394 C36.327,26.371 36.343,26.356 36.354,26.356 L42.806,26.356 L42.238,30.13 L36.123,30.13 z M6.389,26.356 L12.118,26.356 C12.149,26.356 12.164,26.371 12.164,26.394 L12.361,30.13 L6.957,30.13 L6.389,26.356 z M11.739,19.468 L12.087,24.977 C12.087,25 12.071,25.011 12.056,25.011 L6.176,25.011 L5.207,19.429 L11.708,19.429 C11.731,19.429 11.739,19.452 11.739,19.468 z M23.927,18.073 C23.927,18.085 23.912,18.1 23.896,18.1 L13.041,18.1 C13.025,18.1 13.01,18.085 13.01,18.073 L12.848,14.23 L23.927,14.23 L23.927,18.073 z M35.431,18.1 L25.291,18.1 C25.275,18.1 25.26,18.085 25.26,18.073 L25.26,14.23 L35.628,14.23 L35.462,18.073 C35.462,18.085 35.447,18.1 35.431,18.1 z M25.26,24.977 L25.26,19.468 C25.26,19.452 25.275,19.429 25.291,19.429 L35.373,19.429 C35.385,19.429 35.4,19.452 35.4,19.468 L35.056,24.977 C35.056,25 35.041,25.011 35.026,25.011 L25.291,25.011 C25.275,25.011 25.26,25 25.26,24.977 z M25.291,26.356 L34.956,26.356 C34.979,26.356 34.995,26.371 34.987,26.394 L34.778,30.13 L25.26,30.13 L25.26,26.394 C25.26,26.371 25.275,26.356 25.291,26.356 z M13.497,26.394 C13.497,26.371 13.512,26.356 13.528,26.356 L23.896,26.356 C23.912,26.356 23.927,26.371 23.927,26.394 L23.927,30.13 L13.694,30.13 L13.497,26.394 z M13.087,19.468 C13.087,19.452 13.103,19.429 13.118,19.429 L23.896,19.429 C23.912,19.429 23.927,19.452 23.927,19.468 L23.927,24.977 C23.927,25 23.912,25.011 23.896,25.011 L13.462,25.011 C13.446,25.011 13.423,25 13.423,24.977 L13.087,19.468 z M43.01,25.011 L36.432,25.011 C36.401,25.011 36.393,25 36.393,24.977 L36.737,19.468 C36.737,19.452 36.752,19.429 36.775,19.429 L43.98,19.429 L43.01,25.011 z M1.626,17.274 L1.68,17.633 L3.827,31.81 C3.963,32.726 4.824,33.464 5.751,33.464 L43.435,33.464 C44.355,33.464 45.224,32.726 45.363,31.81 L47.499,17.633 L47.561,17.274 L48.28,12.541 C48.419,11.63 47.774,10.88 46.862,10.88 L2.332,10.88 C1.417,10.88 0.78,11.63 0.907,12.541 L1.626,17.274" fill="#FFFFFF"/>
    <path d="M12.674,42.569 C9.58,42.569 7.069,45.092 7.069,48.19 C7.069,51.276 9.58,53.799 12.674,53.799 C15.768,53.799 18.287,51.276 18.287,48.19 C18.287,45.092 15.768,42.569 12.674,42.569" fill="#FFFFFF"/>
    <path d="M37.03,42.569 C33.936,42.569 31.421,45.092 31.421,48.19 C31.421,51.276 33.936,53.799 37.03,53.799 C40.132,53.799 42.64,51.276 42.64,48.19 C42.64,45.092 40.132,42.569 37.03,42.569" fill="#FFFFFF"/>
  </g>
  <defs/>
</svg>
