<?xml version="1.0" encoding="UTF-8"?>
<!DOCTYPE svg PUBLIC "-//W3C//DTD SVG 1.1//EN" "http://www.w3.org/Graphics/SVG/1.1/DTD/svg11.dtd">
<svg version="1.1" xmlns="http://www.w3.org/2000/svg" xmlns:xlink="http://www.w3.org/1999/xlink" x="0px" y="0px" width="64" height="64" viewBox="0, 0, 64, 64">
  <g id="Background">
    <rect x="0" y="0" width="64" height="64" fill="#000000" fill-opacity="0"/>
  </g>
  <g id="Background"/>
  <g id="Layer 1">
    <path d="M54.963,27.418 L47.451,27.418 L47.451,19.907 C47.451,19.334 46.986,18.868 46.413,18.868 L44.274,18.868 C43.699,18.868 43.233,19.334 43.233,19.907 L43.233,27.418 L35.722,27.418 C35.149,27.418 34.683,27.885 34.683,28.458 L34.683,30.598 C34.683,31.172 35.149,31.637 35.722,31.637 L43.233,31.637 L43.233,39.149 C43.233,39.724 43.699,40.188 44.274,40.188 L46.413,40.188 C46.986,40.188 47.451,39.724 47.451,39.149 L47.451,31.637 L54.963,31.637 C55.54,31.637 56,31.172 56,30.598 L56,28.458 C56,27.885 55.54,27.418 54.963,27.418" fill="#FFFFFF"/>
    <path d="M17.121,14.424 C17.824,13.621 18.745,13.197 19.779,13.197 L19.896,13.199 C22.817,13.285 25.612,16.54 26.127,20.455 C26.415,22.647 25.928,24.708 24.825,25.965 C24.121,26.768 23.213,27.192 22.137,27.192 C22.137,27.192 22.137,27.192 22.135,27.192 L22.088,27.192 C19.227,27.105 16.372,23.725 15.861,19.815 C15.573,17.63 16.033,15.665 17.121,14.424 z M13.027,43.781 C13.027,40.674 16.975,37.948 21.474,37.948 L21.595,37.949 C22.573,37.96 23.528,38.105 24.43,38.381 C24.737,38.594 25.036,38.797 25.322,38.991 C27.406,40.411 28.782,41.349 29.166,42.853 C29.256,43.231 29.301,43.61 29.301,43.977 C29.301,47.847 26.415,49.808 20.723,49.808 C16.407,49.808 13.027,47.161 13.027,43.781 z M29.719,34.003 C28.139,32.885 26.702,31.244 26.677,30.74 C26.677,29.821 26.759,29.383 28.817,27.779 C31.48,25.694 32.946,22.954 32.946,20.059 C32.946,17.434 32.145,15.102 30.778,13.465 L31.837,13.465 C32.057,13.465 32.271,13.396 32.447,13.268 L35.402,11.128 C35.77,10.865 35.923,10.395 35.782,9.967 C35.643,9.539 35.245,9.247 34.794,9.247 L21.579,9.247 C20.133,9.247 18.664,9.502 17.222,9.998 C12.405,11.659 9.038,15.763 9.038,19.975 C9.038,25.944 13.662,30.469 19.843,30.611 C19.722,31.084 19.661,31.55 19.661,32.007 C19.661,32.927 19.895,33.798 20.374,34.64 C20.318,34.641 20.264,34.641 20.204,34.641 C14.313,34.641 8.994,37.531 6.975,41.834 C6.448,42.952 6.181,44.083 6.181,45.2 C6.181,46.286 6.46,47.332 7.007,48.313 C8.275,50.583 11.001,52.345 14.684,53.274 C16.585,53.755 18.628,54 20.749,54 C22.655,54 24.472,53.753 26.152,53.266 C31.391,51.746 34.776,47.891 34.776,43.438 C34.776,39.167 33.404,36.61 29.719,34.003" fill="#FFFFFF"/>
  </g>
  <defs/>
</svg>
