<?xml version="1.0" encoding="UTF-8"?>
<!DOCTYPE svg PUBLIC "-//W3C//DTD SVG 1.1//EN" "http://www.w3.org/Graphics/SVG/1.1/DTD/svg11.dtd">
<svg version="1.1" xmlns="http://www.w3.org/2000/svg" xmlns:xlink="http://www.w3.org/1999/xlink" x="0px" y="0px" width="64" height="64" viewBox="0, 0, 64, 64">
  <g id="Background">
    <rect x="0" y="0" width="64" height="64" fill="#000000" fill-opacity="0"/>
  </g>
  <g id="Background"/>
  <g id="Layer 1">
    <path d="M32.897,6.217 C19.311,6.217 12.461,15.957 12.461,24.08 C12.461,28.998 14.322,33.373 18.316,35.003 C18.971,35.272 19.558,35.013 19.748,34.288 C19.88,33.787 20.193,32.522 20.332,31.992 C20.523,31.277 20.449,31.026 19.921,30.4 C18.769,29.042 18.033,27.283 18.033,24.791 C18.033,17.566 23.44,11.097 32.111,11.097 C39.791,11.097 44.01,15.789 44.01,22.054 C44.01,30.299 40.36,37.259 34.944,37.259 C31.953,37.259 29.714,34.785 30.431,31.75 C31.291,28.128 32.955,24.219 32.955,21.603 C32.955,19.263 31.699,17.311 29.099,17.311 C26.041,17.311 23.584,20.475 23.584,24.712 C23.584,27.411 24.496,29.237 24.496,29.237 C24.496,29.237 21.367,42.496 20.818,44.819 C19.726,49.444 20.654,55.112 20.733,55.685 C20.778,56.025 21.215,56.106 21.412,55.85 C21.694,55.482 25.337,50.985 26.574,46.491 C26.925,45.219 28.586,38.631 28.586,38.631 C29.579,40.528 32.483,42.194 35.571,42.194 C44.763,42.194 51,33.816 51,22.599 C51,14.116 43.816,6.217 32.897,6.217" fill="#FFFFFF"/>
  </g>
  <defs/>
</svg>
