<?xml version="1.0" encoding="UTF-8"?>
<!DOCTYPE svg PUBLIC "-//W3C//DTD SVG 1.1//EN" "http://www.w3.org/Graphics/SVG/1.1/DTD/svg11.dtd">
<svg version="1.1" xmlns="http://www.w3.org/2000/svg" xmlns:xlink="http://www.w3.org/1999/xlink" x="0px" y="0px" width="64" height="64" viewBox="0, 0, 64, 64">
  <g id="Background">
    <rect x="0" y="0" width="64" height="64" fill="#000000" fill-opacity="0"/>
  </g>
  <g id="Background"/>
  <g id="Layer 1">
    <path d="M56,16.703 C54.189,17.508 52.241,18.051 50.195,18.295 C52.283,17.045 53.885,15.064 54.64,12.703 C52.686,13.861 50.524,14.703 48.222,15.156 C46.378,13.192 43.751,11.964 40.845,11.964 C35.263,11.964 30.738,16.49 30.738,22.071 C30.738,22.863 30.827,23.634 30.999,24.374 C22.6,23.953 15.152,19.93 10.167,13.815 C9.297,15.307 8.799,17.043 8.799,18.896 C8.799,22.402 10.583,25.495 13.295,27.308 C11.639,27.255 10.08,26.801 8.717,26.044 C8.716,26.086 8.716,26.128 8.716,26.171 C8.716,31.067 12.2,35.152 16.824,36.082 C15.976,36.312 15.083,36.436 14.161,36.436 C13.509,36.436 12.876,36.373 12.259,36.254 C13.546,40.27 17.278,43.192 21.7,43.274 C18.241,45.984 13.884,47.6 9.148,47.6 C8.332,47.6 7.528,47.552 6.737,47.459 C11.211,50.327 16.523,52 22.23,52 C40.821,52 50.986,36.599 50.986,23.243 C50.986,22.806 50.978,22.369 50.958,21.936 C52.932,20.511 54.646,18.731 56,16.703" fill="#FFFFFF"/>
  </g>
  <defs/>
</svg>
